<svg xmlns="http://www.w3.org/2000/svg" viewBox="0 0 1200 630" role="img" aria-label="Vista previa OC-CALISTHENICS">
  <rect width="1200" height="630" fill="#020617" />
  <rect x="45" y="50" width="1110" height="530" rx="20" fill="#0f172a" />
  <rect x="80" y="88" width="1040" height="42" rx="8" fill="#1e293b" />
  <rect x="98" y="100" width="180" height="18" rx="6" fill="#334155" />
  <rect x="295" y="100" width="130" height="18" rx="6" fill="#334155" />
  <rect x="80" y="160" width="180" height="380" rx="14" fill="#1e293b" />
  <rect x="105" y="190" width="130" height="12" rx="6" fill="#475569" />
  <rect x="105" y="220" width="130" height="12" rx="6" fill="#334155" />
  <rect x="105" y="250" width="130" height="12" rx="6" fill="#334155" />
  <rect x="280" y="160" width="525" height="230" rx="14" fill="#1e293b" />
  <polyline points="320,340 410,270 500,300 610,220 695,260 770,210" fill="none" stroke="#22c55e" stroke-width="8" stroke-linecap="round" stroke-linejoin="round" />
  <rect x="308" y="188" width="220" height="14" rx="6" fill="#64748b" />
  <rect x="280" y="410" width="525" height="130" rx="14" fill="#1e293b" />
  <rect x="308" y="438" width="460" height="12" rx="6" fill="#334155" />
  <rect x="308" y="462" width="380" height="12" rx="6" fill="#334155" />
  <rect x="825" y="160" width="295" height="180" rx="14" fill="#1e293b" />
  <circle cx="885" cy="250" r="34" fill="#0ea5e9" />
  <circle cx="975" cy="250" r="34" fill="#22c55e" />
  <circle cx="1065" cy="250" r="34" fill="#f59e0b" />
  <rect x="825" y="360" width="295" height="180" rx="14" fill="#1e293b" />
  <rect x="852" y="390" width="242" height="16" rx="6" fill="#475569" />
  <rect x="852" y="420" width="242" height="12" rx="6" fill="#334155" />
  <rect x="852" y="444" width="206" height="12" rx="6" fill="#334155" />
</svg>
