<svg xmlns="http://www.w3.org/2000/svg" viewBox="0 0 1200 630" role="img" aria-label="Vista previa Geoportal Xochimilco">
  <rect width="1200" height="630" fill="#052e16" />
  <rect x="45" y="50" width="1110" height="530" rx="20" fill="#14532d" />
  <rect x="80" y="88" width="1040" height="42" rx="8" fill="#166534" />
  <rect x="98" y="100" width="180" height="18" rx="6" fill="#1f7a44" />
  <rect x="295" y="100" width="130" height="18" rx="6" fill="#1f7a44" />
  <rect x="80" y="160" width="780" height="380" rx="14" fill="#166534" />
  <path d="M120,220 L220,200 L290,255 L350,220 L430,270 L515,240 L600,300 L700,250 L780,305 L820,360 L760,430 L620,455 L520,410 L430,465 L320,430 L215,470 L140,410 Z" fill="#86efac" fill-opacity="0.45" />
  <path d="M135,255 L265,395 M230,200 L420,455 M410,260 L620,430 M590,210 L790,365" stroke="#22c55e" stroke-width="6" stroke-linecap="round" />
  <circle cx="280" cy="295" r="12" fill="#fbbf24" />
  <circle cx="470" cy="330" r="12" fill="#fbbf24" />
  <circle cx="650" cy="300" r="12" fill="#fbbf24" />
  <rect x="880" y="160" width="240" height="180" rx="14" fill="#166534" />
  <rect x="904" y="188" width="192" height="14" rx="6" fill="#86efac" />
  <rect x="904" y="218" width="192" height="12" rx="6" fill="#4ade80" />
  <rect x="904" y="242" width="160" height="12" rx="6" fill="#4ade80" />
  <rect x="880" y="360" width="240" height="180" rx="14" fill="#166534" />
  <rect x="905" y="390" width="190" height="18" rx="6" fill="#bbf7d0" />
  <rect x="905" y="418" width="190" height="48" rx="8" fill="#1f7a44" />
  <rect x="905" y="476" width="132" height="12" rx="6" fill="#4ade80" />
</svg>
